<svg id="logosandtypes_com" data-name="logosandtypes com" xmlns="http://www.w3.org/2000/svg" viewBox="0 0 150 150"><defs><style>.cls-1{fill:none;}.cls-2{fill:#f7a8a6;}.cls-3{fill:#f16b65;}.cls-4{fill:#facac7;}.cls-5{fill:#e42d27;}.cls-6{fill:#fce9e9;}.cls-7{fill:#ee372b;}</style></defs><path class="cls-1" d="M0,0H150V150H0Z"/><path class="cls-2" d="M90.46,36.83l26.71,15.59L90.46,67.26Z"/><path class="cls-3" d="M117.17,21.25V52.42L90.46,36.83Z"/><path class="cls-4" d="M63.74,82.84,90.46,98.42a50.28,50.28,0,0,0,0-31.16Z"/><path class="cls-5" d="M63.74,21.25,37,36.83,61.22,53.89,94.71,34.35,90.46,5.67Z"/><path class="cls-6" d="M63.74,82.84,90.46,98.42,63.74,115.49Z"/><path class="cls-7" d="M90.46,5.67V36.83l26.71-15.58Z"/><path class="cls-2" d="M90.46,67.26v34.13l26.71-18.55Z"/><polygon class="cls-7" points="94.71 96.06 117.17 113.27 63.74 144.43 60.77 114.92 94.71 96.06"/><path class="cls-3" d="M117.17,82.84v30.43L90.46,98.42Z"/><path class="cls-5" d="M37,98.42,63.74,80.81v63.62L37,129.59Z"/><polygon class="cls-7" points="37.03 36.83 63.74 52.42 63.74 82.84 37.03 98.42 37.03 36.83"/></svg>